<svg xmlns="http://www.w3.org/2000/svg" width="33.038" height="31.977" viewBox="0 0 33.038 31.977">
  <path id="Icon_metro-spinner1" data-name="Icon metro-spinner1" d="M36.57,18.928A16.87,16.87,0,0,0,31.387,7.06a16.747,16.747,0,0,0-5.494-3.518,16.561,16.561,0,0,0-12.645.246,16.3,16.3,0,0,0-8.622,8.97A16.029,16.029,0,0,0,4.872,25a15.762,15.762,0,0,0,8.682,8.334,15.5,15.5,0,0,0,11.829-.246,15.229,15.229,0,0,0,8.046-8.394,14.884,14.884,0,0,0,.884-3.457c.041,0,.083,0,.125,0a2.131,2.131,0,0,0,2.131-2.131c0-.06,0-.119-.008-.178h.008Zm-3.386,5.659a14.7,14.7,0,0,1-8.106,7.758A14.431,14.431,0,0,1,14.064,32.1a14.163,14.163,0,0,1-7.47-7.818,13.9,13.9,0,0,1,.246-10.6A13.684,13.684,0,0,1,9.912,9.32,13.546,13.546,0,0,1,14.37,6.495a13.356,13.356,0,0,1,5.149-.887A13.139,13.139,0,0,1,28.75,9.7a13.013,13.013,0,0,1,2.71,4.285,12.824,12.824,0,0,1,.847,4.945h.008q-.008.089-.008.178a2.131,2.131,0,0,0,1.9,2.119,14.7,14.7,0,0,1-1.025,3.363Z" transform="translate(-3.531 -2.407)" fill="#2c3b47"/>
</svg>
